<mxfile host="app.diagrams.net" agent="Mozilla/5.0 (Windows NT 10.0; Win64; x64) AppleWebKit/537.36 (KHTML, like Gecko) Chrome/130.0.0.0 Safari/537.36" version="24.8.6">
  <diagram name="Page-1" id="fRA6hYW7Ivh0Gdqsma-z">
    <mxGraphModel grid="1" page="1" gridSize="10" guides="1" tooltips="1" connect="1" arrows="1" fold="1" pageScale="1" pageWidth="1100" pageHeight="850" math="0" shadow="0">
      <root>
        <mxCell id="0" />
        <mxCell id="1" parent="0" />
        <mxCell id="E_f2026IoL6lqCkMhn0O-1" value="" style="verticalLabelPosition=bottom;shadow=0;dashed=0;align=center;html=1;verticalAlign=top;shape=mxgraph.electrical.abstract.dac;rounded=0;" vertex="1" parent="1">
          <mxGeometry width="80" height="40" as="geometry" />
        </mxCell>
        <mxCell id="E_f2026IoL6lqCkMhn0O-2" value="uartRx" style="text;html=1;align=center;verticalAlign=middle;whiteSpace=wrap;rounded=0;" vertex="1" parent="1">
          <mxGeometry y="5" width="60" height="30" as="geometry" />
        </mxCell>
        <mxCell id="E_f2026IoL6lqCkMhn0O-3" value="" style="endArrow=none;html=1;rounded=0;" edge="1" parent="1">
          <mxGeometry width="50" height="50" relative="1" as="geometry">
            <mxPoint x="80" y="20" as="sourcePoint" />
            <mxPoint x="120" y="20" as="targetPoint" />
          </mxGeometry>
        </mxCell>
        <mxCell id="E_f2026IoL6lqCkMhn0O-4" value="" style="endArrow=none;html=1;rounded=0;" edge="1" parent="1">
          <mxGeometry width="50" height="50" relative="1" as="geometry">
            <mxPoint x="254" y="51.5" as="sourcePoint" />
            <mxPoint x="264" y="31.5" as="targetPoint" />
          </mxGeometry>
        </mxCell>
        <mxCell id="E_f2026IoL6lqCkMhn0O-5" value="8" style="text;html=1;align=center;verticalAlign=middle;whiteSpace=wrap;rounded=0;" vertex="1" parent="1">
          <mxGeometry x="250" y="28.5" width="10" height="10" as="geometry" />
        </mxCell>
        <mxCell id="E_f2026IoL6lqCkMhn0O-6" value="" style="rounded=0;whiteSpace=wrap;html=1;" vertex="1" parent="1">
          <mxGeometry x="120" width="120" height="160" as="geometry" />
        </mxCell>
        <mxCell id="E_f2026IoL6lqCkMhn0O-7" value="rxData" style="text;html=1;align=center;verticalAlign=middle;whiteSpace=wrap;rounded=0;" vertex="1" parent="1">
          <mxGeometry x="120" y="15" width="40" height="10" as="geometry" />
        </mxCell>
        <mxCell id="E_f2026IoL6lqCkMhn0O-8" value="UART_RECEIVER" style="text;html=1;align=center;verticalAlign=middle;whiteSpace=wrap;rounded=0;" vertex="1" parent="1">
          <mxGeometry x="125" y="-30" width="110" height="30" as="geometry" />
        </mxCell>
        <mxCell id="E_f2026IoL6lqCkMhn0O-9" value="UartRx" style="text;html=1;align=center;verticalAlign=middle;whiteSpace=wrap;rounded=0;" vertex="1" parent="1">
          <mxGeometry x="200" y="140" width="40" height="20" as="geometry" />
        </mxCell>
        <mxCell id="E_f2026IoL6lqCkMhn0O-10" value="clock" style="text;html=1;align=center;verticalAlign=middle;whiteSpace=wrap;rounded=0;" vertex="1" parent="1">
          <mxGeometry x="120" y="125" width="40" height="10" as="geometry" />
        </mxCell>
        <mxCell id="E_f2026IoL6lqCkMhn0O-11" value="reset" style="text;html=1;align=center;verticalAlign=middle;whiteSpace=wrap;rounded=0;" vertex="1" parent="1">
          <mxGeometry x="120" y="145" width="40" height="10" as="geometry" />
        </mxCell>
        <mxCell id="E_f2026IoL6lqCkMhn0O-12" value="clock" style="text;html=1;align=center;verticalAlign=middle;whiteSpace=wrap;rounded=0;" vertex="1" parent="1">
          <mxGeometry x="30" y="120" width="50" height="20" as="geometry" />
        </mxCell>
        <mxCell id="E_f2026IoL6lqCkMhn0O-13" value="" style="endArrow=none;html=1;rounded=0;entryX=0;entryY=0.5;entryDx=0;entryDy=0;" edge="1" parent="1">
          <mxGeometry width="50" height="50" relative="1" as="geometry">
            <mxPoint x="70" y="130" as="sourcePoint" />
            <mxPoint x="120" y="130" as="targetPoint" />
          </mxGeometry>
        </mxCell>
        <mxCell id="E_f2026IoL6lqCkMhn0O-14" value="reset" style="text;html=1;align=center;verticalAlign=middle;whiteSpace=wrap;rounded=0;" vertex="1" parent="1">
          <mxGeometry x="30" y="140" width="50" height="20" as="geometry" />
        </mxCell>
        <mxCell id="E_f2026IoL6lqCkMhn0O-15" value="" style="endArrow=none;html=1;rounded=0;entryX=0;entryY=0.5;entryDx=0;entryDy=0;" edge="1" parent="1">
          <mxGeometry width="50" height="50" relative="1" as="geometry">
            <mxPoint x="70" y="150" as="sourcePoint" />
            <mxPoint x="120" y="150" as="targetPoint" />
          </mxGeometry>
        </mxCell>
        <mxCell id="E_f2026IoL6lqCkMhn0O-16" value="dataReady" style="text;html=1;align=center;verticalAlign=middle;whiteSpace=wrap;rounded=0;" vertex="1" parent="1">
          <mxGeometry x="180" y="15" width="60" height="10" as="geometry" />
        </mxCell>
        <mxCell id="E_f2026IoL6lqCkMhn0O-17" value="dataOut" style="text;html=1;align=center;verticalAlign=middle;whiteSpace=wrap;rounded=0;" vertex="1" parent="1">
          <mxGeometry x="180" y="35" width="60" height="10" as="geometry" />
        </mxCell>
        <mxCell id="E_f2026IoL6lqCkMhn0O-18" value="" style="rounded=0;whiteSpace=wrap;html=1;" vertex="1" parent="1">
          <mxGeometry x="1244" y="480" width="120" height="140" as="geometry" />
        </mxCell>
        <mxCell id="E_f2026IoL6lqCkMhn0O-19" value="" style="endArrow=none;html=1;rounded=0;strokeWidth=3;" edge="1" parent="1">
          <mxGeometry width="50" height="50" relative="1" as="geometry">
            <mxPoint x="240" y="40" as="sourcePoint" />
            <mxPoint x="280" y="40" as="targetPoint" />
          </mxGeometry>
        </mxCell>
        <mxCell id="E_f2026IoL6lqCkMhn0O-20" value="uartData" style="text;html=1;align=center;verticalAlign=middle;whiteSpace=wrap;rounded=0;" vertex="1" parent="1">
          <mxGeometry x="280" y="35" width="60" height="10" as="geometry" />
        </mxCell>
        <mxCell id="E_f2026IoL6lqCkMhn0O-21" value="uartData" style="text;html=1;align=center;verticalAlign=middle;whiteSpace=wrap;rounded=0;" vertex="1" parent="1">
          <mxGeometry x="1794" y="643.5" width="60" height="10" as="geometry" />
        </mxCell>
        <mxCell id="E_f2026IoL6lqCkMhn0O-22" value="" style="endArrow=none;html=1;rounded=0;" edge="1" parent="1">
          <mxGeometry width="50" height="50" relative="1" as="geometry">
            <mxPoint x="1868" y="661.5" as="sourcePoint" />
            <mxPoint x="1878" y="641.5" as="targetPoint" />
          </mxGeometry>
        </mxCell>
        <mxCell id="E_f2026IoL6lqCkMhn0O-23" value="8" style="text;html=1;align=center;verticalAlign=middle;whiteSpace=wrap;rounded=0;" vertex="1" parent="1">
          <mxGeometry x="1864" y="638.5" width="10" height="10" as="geometry" />
        </mxCell>
        <mxCell id="E_f2026IoL6lqCkMhn0O-24" value="" style="endArrow=none;html=1;rounded=0;strokeWidth=3;" edge="1" parent="1">
          <mxGeometry width="50" height="50" relative="1" as="geometry">
            <mxPoint x="1854" y="650.5" as="sourcePoint" />
            <mxPoint x="1894" y="650.5" as="targetPoint" />
          </mxGeometry>
        </mxCell>
        <mxCell id="E_f2026IoL6lqCkMhn0O-25" value="ADDRESS_INCREMENTER" style="text;html=1;align=center;verticalAlign=middle;whiteSpace=wrap;rounded=0;" vertex="1" parent="1">
          <mxGeometry x="1244" y="460" width="120" height="20" as="geometry" />
        </mxCell>
        <mxCell id="E_f2026IoL6lqCkMhn0O-29" value="" style="endArrow=none;html=1;rounded=0;strokeWidth=3;" edge="1" parent="1">
          <mxGeometry width="50" height="50" relative="1" as="geometry">
            <mxPoint x="1364" y="590" as="sourcePoint" />
            <mxPoint x="1894" y="590" as="targetPoint" />
          </mxGeometry>
        </mxCell>
        <mxCell id="E_f2026IoL6lqCkMhn0O-34" value="" style="endArrow=none;html=1;rounded=0;" edge="1" parent="1">
          <mxGeometry width="50" height="50" relative="1" as="geometry">
            <mxPoint x="730" y="110" as="sourcePoint" />
            <mxPoint x="1894" y="700" as="targetPoint" />
            <Array as="points">
              <mxPoint x="900" y="110" />
              <mxPoint x="900" y="200" />
              <mxPoint x="1080" y="200" />
              <mxPoint x="1080" y="700" />
            </Array>
          </mxGeometry>
        </mxCell>
        <mxCell id="E_f2026IoL6lqCkMhn0O-35" value="clock" style="text;html=1;align=center;verticalAlign=middle;whiteSpace=wrap;rounded=0;" vertex="1" parent="1">
          <mxGeometry x="1174" y="585" width="50" height="20" as="geometry" />
        </mxCell>
        <mxCell id="E_f2026IoL6lqCkMhn0O-36" value="" style="endArrow=none;html=1;rounded=0;" edge="1" parent="1">
          <mxGeometry width="50" height="50" relative="1" as="geometry">
            <mxPoint x="1214" y="595" as="sourcePoint" />
            <mxPoint x="1244" y="595" as="targetPoint" />
          </mxGeometry>
        </mxCell>
        <mxCell id="E_f2026IoL6lqCkMhn0O-37" value="reset" style="text;html=1;align=center;verticalAlign=middle;whiteSpace=wrap;rounded=0;" vertex="1" parent="1">
          <mxGeometry x="1174" y="605" width="50" height="20" as="geometry" />
        </mxCell>
        <mxCell id="E_f2026IoL6lqCkMhn0O-38" value="" style="endArrow=none;html=1;rounded=0;" edge="1" parent="1">
          <mxGeometry width="50" height="50" relative="1" as="geometry">
            <mxPoint x="1214" y="615" as="sourcePoint" />
            <mxPoint x="1244" y="615" as="targetPoint" />
          </mxGeometry>
        </mxCell>
        <mxCell id="E_f2026IoL6lqCkMhn0O-39" value="" style="endArrow=none;html=1;rounded=0;" edge="1" parent="1">
          <mxGeometry width="50" height="50" relative="1" as="geometry">
            <mxPoint x="730" y="130" as="sourcePoint" />
            <mxPoint x="1244" y="540" as="targetPoint" />
            <Array as="points">
              <mxPoint x="880" y="130" />
              <mxPoint x="880" y="220" />
              <mxPoint x="1060" y="220" />
              <mxPoint x="1060" y="540" />
            </Array>
          </mxGeometry>
        </mxCell>
        <mxCell id="E_f2026IoL6lqCkMhn0O-41" value="" style="endArrow=none;html=1;rounded=0;" edge="1" parent="1">
          <mxGeometry width="50" height="50" relative="1" as="geometry">
            <mxPoint x="730" y="120" as="sourcePoint" />
            <mxPoint x="1244" y="520" as="targetPoint" />
            <Array as="points">
              <mxPoint x="890" y="120" />
              <mxPoint x="890" y="210" />
              <mxPoint x="1070" y="210" />
              <mxPoint x="1070" y="520" />
            </Array>
          </mxGeometry>
        </mxCell>
        <mxCell id="E_f2026IoL6lqCkMhn0O-42" value="" style="endArrow=none;html=1;rounded=0;" edge="1" parent="1">
          <mxGeometry width="50" height="50" relative="1" as="geometry">
            <mxPoint x="1364" y="500" as="sourcePoint" />
            <mxPoint x="610" y="110" as="targetPoint" />
            <Array as="points">
              <mxPoint x="1530" y="500" />
              <mxPoint x="1530" y="640" />
              <mxPoint x="570" y="640" />
              <mxPoint x="570" y="110" />
            </Array>
          </mxGeometry>
        </mxCell>
        <mxCell id="E_f2026IoL6lqCkMhn0O-43" value="addressTerminalMode" style="text;html=1;align=center;verticalAlign=middle;whiteSpace=wrap;rounded=0;" vertex="1" parent="1">
          <mxGeometry x="1384" y="490" width="116" height="10" as="geometry" />
        </mxCell>
        <mxCell id="E_f2026IoL6lqCkMhn0O-44" value="addressClearEn" style="text;html=1;align=center;verticalAlign=middle;whiteSpace=wrap;rounded=0;" vertex="1" parent="1">
          <mxGeometry x="1158" y="500" width="84" height="20" as="geometry" />
        </mxCell>
        <mxCell id="E_f2026IoL6lqCkMhn0O-45" value="" style="endArrow=none;html=1;rounded=0;strokeWidth=3;" edge="1" parent="1">
          <mxGeometry width="50" height="50" relative="1" as="geometry">
            <mxPoint x="1172" y="490" as="sourcePoint" />
            <mxPoint x="1244" y="490" as="targetPoint" />
          </mxGeometry>
        </mxCell>
        <mxCell id="E_f2026IoL6lqCkMhn0O-46" value="dataCount" style="text;html=1;align=center;verticalAlign=middle;whiteSpace=wrap;rounded=0;" vertex="1" parent="1">
          <mxGeometry x="1114" y="485" width="60" height="10" as="geometry" />
        </mxCell>
        <mxCell id="E_f2026IoL6lqCkMhn0O-47" value="" style="rounded=0;whiteSpace=wrap;html=1;" vertex="1" parent="1">
          <mxGeometry x="1181" width="120" height="90" as="geometry" />
        </mxCell>
        <mxCell id="E_f2026IoL6lqCkMhn0O-49" value="TIMEBASE_REGISTER" style="text;html=1;align=center;verticalAlign=middle;whiteSpace=wrap;rounded=0;" vertex="1" parent="1">
          <mxGeometry x="1178" y="-30" width="126" height="30" as="geometry" />
        </mxCell>
        <mxCell id="E_f2026IoL6lqCkMhn0O-54" value="clock" style="text;html=1;align=center;verticalAlign=middle;whiteSpace=wrap;rounded=0;" vertex="1" parent="1">
          <mxGeometry x="1090" y="55" width="50" height="20" as="geometry" />
        </mxCell>
        <mxCell id="E_f2026IoL6lqCkMhn0O-55" value="" style="endArrow=none;html=1;rounded=0;entryX=0;entryY=0.5;entryDx=0;entryDy=0;" edge="1" parent="1">
          <mxGeometry width="50" height="50" relative="1" as="geometry">
            <mxPoint x="1130" y="65" as="sourcePoint" />
            <mxPoint x="1180" y="65" as="targetPoint" />
          </mxGeometry>
        </mxCell>
        <mxCell id="E_f2026IoL6lqCkMhn0O-56" value="reset" style="text;html=1;align=center;verticalAlign=middle;whiteSpace=wrap;rounded=0;" vertex="1" parent="1">
          <mxGeometry x="1090" y="75" width="50" height="20" as="geometry" />
        </mxCell>
        <mxCell id="E_f2026IoL6lqCkMhn0O-57" value="" style="endArrow=none;html=1;rounded=0;entryX=0;entryY=0.5;entryDx=0;entryDy=0;" edge="1" parent="1">
          <mxGeometry width="50" height="50" relative="1" as="geometry">
            <mxPoint x="1130" y="85" as="sourcePoint" />
            <mxPoint x="1180" y="85" as="targetPoint" />
          </mxGeometry>
        </mxCell>
        <mxCell id="E_f2026IoL6lqCkMhn0O-61" value="shiftInTimebaseEn" style="text;html=1;align=center;verticalAlign=middle;whiteSpace=wrap;rounded=0;" vertex="1" parent="1">
          <mxGeometry x="1080" y="20" width="101" height="10" as="geometry" />
        </mxCell>
        <mxCell id="E_f2026IoL6lqCkMhn0O-62" value="loadTimebaseLengthEn" style="text;html=1;align=center;verticalAlign=middle;whiteSpace=wrap;rounded=0;" vertex="1" parent="1">
          <mxGeometry x="1050" y="40" width="130" height="10" as="geometry" />
        </mxCell>
        <mxCell id="E_f2026IoL6lqCkMhn0O-63" value="" style="endArrow=none;html=1;rounded=0;" edge="1" parent="1">
          <mxGeometry width="50" height="50" relative="1" as="geometry">
            <mxPoint x="730" y="35" as="sourcePoint" />
            <mxPoint x="1181" y="35" as="targetPoint" />
          </mxGeometry>
        </mxCell>
        <mxCell id="E_f2026IoL6lqCkMhn0O-64" value="" style="endArrow=none;html=1;rounded=0;" edge="1" parent="1">
          <mxGeometry width="50" height="50" relative="1" as="geometry">
            <mxPoint x="730" y="55" as="sourcePoint" />
            <mxPoint x="1180" y="55" as="targetPoint" />
          </mxGeometry>
        </mxCell>
        <mxCell id="E_f2026IoL6lqCkMhn0O-65" value="" style="endArrow=none;html=1;rounded=0;strokeWidth=3;" edge="1" parent="1">
          <mxGeometry width="50" height="50" relative="1" as="geometry">
            <mxPoint x="1301" y="20" as="sourcePoint" />
            <mxPoint x="1871" y="19" as="targetPoint" />
          </mxGeometry>
        </mxCell>
        <mxCell id="E_f2026IoL6lqCkMhn0O-66" value="timebaseNs" style="text;html=1;align=center;verticalAlign=middle;whiteSpace=wrap;rounded=0;" vertex="1" parent="1">
          <mxGeometry x="1304" y="5" width="60" height="10" as="geometry" />
        </mxCell>
        <mxCell id="E_f2026IoL6lqCkMhn0O-67" value="" style="endArrow=none;html=1;rounded=0;" edge="1" parent="1">
          <mxGeometry width="50" height="50" relative="1" as="geometry">
            <mxPoint x="1301" y="50" as="sourcePoint" />
            <mxPoint x="610" y="40" as="targetPoint" />
            <Array as="points">
              <mxPoint x="1450" y="50" />
              <mxPoint x="1450" y="-40" />
              <mxPoint x="510" y="-40" />
              <mxPoint x="510" y="40" />
            </Array>
          </mxGeometry>
        </mxCell>
        <mxCell id="E_f2026IoL6lqCkMhn0O-68" value="timebaseLoadedMode" style="text;html=1;align=center;verticalAlign=middle;whiteSpace=wrap;rounded=0;" vertex="1" parent="1">
          <mxGeometry x="1304.5" y="40" width="119" height="10" as="geometry" />
        </mxCell>
        <mxCell id="E_f2026IoL6lqCkMhn0O-70" value="" style="verticalLabelPosition=bottom;shadow=0;dashed=0;align=center;html=1;verticalAlign=top;shape=mxgraph.electrical.abstract.dac;rounded=0;" vertex="1" parent="1">
          <mxGeometry x="270" y="80" width="90" height="40" as="geometry" />
        </mxCell>
        <mxCell id="E_f2026IoL6lqCkMhn0O-71" value="sendToVpeEn" style="text;html=1;align=center;verticalAlign=middle;whiteSpace=wrap;rounded=0;" vertex="1" parent="1">
          <mxGeometry x="280" y="85" width="60" height="30" as="geometry" />
        </mxCell>
        <mxCell id="E_f2026IoL6lqCkMhn0O-72" value="" style="verticalLabelPosition=bottom;shadow=0;dashed=0;align=center;html=1;verticalAlign=top;shape=mxgraph.electrical.abstract.dac;rounded=0;" vertex="1" parent="1">
          <mxGeometry y="720" width="80" height="40" as="geometry" />
        </mxCell>
        <mxCell id="E_f2026IoL6lqCkMhn0O-73" value="clock" style="text;html=1;align=center;verticalAlign=middle;whiteSpace=wrap;rounded=0;" vertex="1" parent="1">
          <mxGeometry y="725" width="60" height="30" as="geometry" />
        </mxCell>
        <mxCell id="E_f2026IoL6lqCkMhn0O-74" value="" style="verticalLabelPosition=bottom;shadow=0;dashed=0;align=center;html=1;verticalAlign=top;shape=mxgraph.electrical.abstract.dac;rounded=0;" vertex="1" parent="1">
          <mxGeometry y="800" width="80" height="40" as="geometry" />
        </mxCell>
        <mxCell id="E_f2026IoL6lqCkMhn0O-75" value="reset" style="text;html=1;align=center;verticalAlign=middle;whiteSpace=wrap;rounded=0;" vertex="1" parent="1">
          <mxGeometry y="805" width="60" height="30" as="geometry" />
        </mxCell>
        <mxCell id="E_f2026IoL6lqCkMhn0O-76" value="" style="endArrow=none;html=1;rounded=0;" edge="1" parent="1">
          <mxGeometry width="50" height="50" relative="1" as="geometry">
            <mxPoint x="80" y="740" as="sourcePoint" />
            <mxPoint x="120" y="740" as="targetPoint" />
          </mxGeometry>
        </mxCell>
        <mxCell id="E_f2026IoL6lqCkMhn0O-77" value="clock" style="text;html=1;align=center;verticalAlign=middle;whiteSpace=wrap;rounded=0;" vertex="1" parent="1">
          <mxGeometry x="120" y="725" width="30" height="30" as="geometry" />
        </mxCell>
        <mxCell id="E_f2026IoL6lqCkMhn0O-78" value="" style="endArrow=none;html=1;rounded=0;" edge="1" parent="1">
          <mxGeometry width="50" height="50" relative="1" as="geometry">
            <mxPoint x="80" y="820" as="sourcePoint" />
            <mxPoint x="120" y="820" as="targetPoint" />
          </mxGeometry>
        </mxCell>
        <mxCell id="E_f2026IoL6lqCkMhn0O-79" value="reset" style="text;html=1;align=center;verticalAlign=middle;whiteSpace=wrap;rounded=0;" vertex="1" parent="1">
          <mxGeometry x="120" y="805" width="30" height="30" as="geometry" />
        </mxCell>
        <mxCell id="E_f2026IoL6lqCkMhn0O-80" value="" style="rounded=0;whiteSpace=wrap;html=1;" vertex="1" parent="1">
          <mxGeometry x="1185.25" y="135" width="120" height="90" as="geometry" />
        </mxCell>
        <mxCell id="E_f2026IoL6lqCkMhn0O-81" value="COUNT_REGISTER" style="text;html=1;align=center;verticalAlign=middle;whiteSpace=wrap;rounded=0;" vertex="1" parent="1">
          <mxGeometry x="1182.25" y="105" width="126" height="30" as="geometry" />
        </mxCell>
        <mxCell id="E_f2026IoL6lqCkMhn0O-84" value="clock" style="text;html=1;align=center;verticalAlign=middle;whiteSpace=wrap;rounded=0;" vertex="1" parent="1">
          <mxGeometry x="1094.25" y="190" width="50" height="20" as="geometry" />
        </mxCell>
        <mxCell id="E_f2026IoL6lqCkMhn0O-85" value="" style="endArrow=none;html=1;rounded=0;entryX=0;entryY=0.5;entryDx=0;entryDy=0;" edge="1" parent="1">
          <mxGeometry width="50" height="50" relative="1" as="geometry">
            <mxPoint x="1134.25" y="200" as="sourcePoint" />
            <mxPoint x="1184.25" y="200" as="targetPoint" />
          </mxGeometry>
        </mxCell>
        <mxCell id="E_f2026IoL6lqCkMhn0O-86" value="reset" style="text;html=1;align=center;verticalAlign=middle;whiteSpace=wrap;rounded=0;" vertex="1" parent="1">
          <mxGeometry x="1094.25" y="210" width="50" height="20" as="geometry" />
        </mxCell>
        <mxCell id="E_f2026IoL6lqCkMhn0O-87" value="" style="endArrow=none;html=1;rounded=0;entryX=0;entryY=0.5;entryDx=0;entryDy=0;" edge="1" parent="1">
          <mxGeometry width="50" height="50" relative="1" as="geometry">
            <mxPoint x="1134.25" y="220" as="sourcePoint" />
            <mxPoint x="1184.25" y="220" as="targetPoint" />
          </mxGeometry>
        </mxCell>
        <mxCell id="E_f2026IoL6lqCkMhn0O-91" value="shiftInCountEn" style="text;html=1;align=center;verticalAlign=middle;whiteSpace=wrap;rounded=0;" vertex="1" parent="1">
          <mxGeometry x="1094.25" y="155" width="91" height="10" as="geometry" />
        </mxCell>
        <mxCell id="E_f2026IoL6lqCkMhn0O-92" value="loadCountLengthEn" style="text;html=1;align=center;verticalAlign=middle;whiteSpace=wrap;rounded=0;" vertex="1" parent="1">
          <mxGeometry x="1080" y="175" width="104.25" height="10" as="geometry" />
        </mxCell>
        <mxCell id="E_f2026IoL6lqCkMhn0O-93" value="" style="endArrow=none;html=1;rounded=0;" edge="1" parent="1">
          <mxGeometry width="50" height="50" relative="1" as="geometry">
            <mxPoint x="730" y="80" as="sourcePoint" />
            <mxPoint x="1185.25" y="170" as="targetPoint" />
            <Array as="points">
              <mxPoint x="930" y="80" />
              <mxPoint x="930" y="170" />
            </Array>
          </mxGeometry>
        </mxCell>
        <mxCell id="E_f2026IoL6lqCkMhn0O-94" value="" style="endArrow=none;html=1;rounded=0;" edge="1" parent="1">
          <mxGeometry width="50" height="50" relative="1" as="geometry">
            <mxPoint x="730" y="100" as="sourcePoint" />
            <mxPoint x="1184.25" y="190" as="targetPoint" />
            <Array as="points">
              <mxPoint x="910" y="100" />
              <mxPoint x="910" y="190" />
            </Array>
          </mxGeometry>
        </mxCell>
        <mxCell id="E_f2026IoL6lqCkMhn0O-95" value="" style="endArrow=none;html=1;rounded=0;strokeWidth=3;" edge="1" parent="1">
          <mxGeometry width="50" height="50" relative="1" as="geometry">
            <mxPoint x="1305.25" y="155" as="sourcePoint" />
            <mxPoint x="1364.25" y="155" as="targetPoint" />
          </mxGeometry>
        </mxCell>
        <mxCell id="E_f2026IoL6lqCkMhn0O-96" value="dataCount" style="text;html=1;align=center;verticalAlign=middle;whiteSpace=wrap;rounded=0;" vertex="1" parent="1">
          <mxGeometry x="1367.75" y="150" width="60" height="10" as="geometry" />
        </mxCell>
        <mxCell id="E_f2026IoL6lqCkMhn0O-97" value="" style="endArrow=none;html=1;rounded=0;" edge="1" parent="1">
          <mxGeometry width="50" height="50" relative="1" as="geometry">
            <mxPoint x="1305.25" y="185" as="sourcePoint" />
            <mxPoint x="610" y="50" as="targetPoint" />
            <Array as="points">
              <mxPoint x="1460" y="185" />
              <mxPoint x="1460" y="-50" />
              <mxPoint x="500" y="-50" />
              <mxPoint x="500" y="50" />
            </Array>
          </mxGeometry>
        </mxCell>
        <mxCell id="E_f2026IoL6lqCkMhn0O-98" value="countLoadedMode" style="text;html=1;align=center;verticalAlign=middle;whiteSpace=wrap;rounded=0;" vertex="1" parent="1">
          <mxGeometry x="1315.38" y="175" width="97.25" height="10" as="geometry" />
        </mxCell>
        <mxCell id="E_f2026IoL6lqCkMhn0O-100" value="" style="verticalLabelPosition=bottom;shadow=0;dashed=0;align=center;html=1;verticalAlign=top;shape=mxgraph.electrical.abstract.dac;rounded=0;" vertex="1" parent="1">
          <mxGeometry x="1894" y="570" width="80" height="40" as="geometry" />
        </mxCell>
        <mxCell id="E_f2026IoL6lqCkMhn0O-101" value="address" style="text;html=1;align=center;verticalAlign=middle;whiteSpace=wrap;rounded=0;" vertex="1" parent="1">
          <mxGeometry x="1894" y="575" width="60" height="30" as="geometry" />
        </mxCell>
        <mxCell id="E_f2026IoL6lqCkMhn0O-102" value="" style="verticalLabelPosition=bottom;shadow=0;dashed=0;align=center;html=1;verticalAlign=top;shape=mxgraph.electrical.abstract.dac;rounded=0;" vertex="1" parent="1">
          <mxGeometry x="1894" y="630" width="80" height="40" as="geometry" />
        </mxCell>
        <mxCell id="E_f2026IoL6lqCkMhn0O-103" value="writeData" style="text;html=1;align=center;verticalAlign=middle;whiteSpace=wrap;rounded=0;" vertex="1" parent="1">
          <mxGeometry x="1894" y="635" width="60" height="30" as="geometry" />
        </mxCell>
        <mxCell id="E_f2026IoL6lqCkMhn0O-105" value="uartData" style="text;html=1;align=center;verticalAlign=middle;whiteSpace=wrap;rounded=0;" vertex="1" parent="1">
          <mxGeometry x="1080" y="5" width="60" height="10" as="geometry" />
        </mxCell>
        <mxCell id="E_f2026IoL6lqCkMhn0O-106" value="" style="endArrow=none;html=1;rounded=0;" edge="1" parent="1">
          <mxGeometry width="50" height="50" relative="1" as="geometry">
            <mxPoint x="1154" y="23" as="sourcePoint" />
            <mxPoint x="1164" y="3" as="targetPoint" />
          </mxGeometry>
        </mxCell>
        <mxCell id="E_f2026IoL6lqCkMhn0O-107" value="8" style="text;html=1;align=center;verticalAlign=middle;whiteSpace=wrap;rounded=0;" vertex="1" parent="1">
          <mxGeometry x="1150" width="10" height="10" as="geometry" />
        </mxCell>
        <mxCell id="E_f2026IoL6lqCkMhn0O-108" value="" style="endArrow=none;html=1;rounded=0;strokeWidth=3;" edge="1" parent="1">
          <mxGeometry width="50" height="50" relative="1" as="geometry">
            <mxPoint x="1140" y="12" as="sourcePoint" />
            <mxPoint x="1180" y="12" as="targetPoint" />
          </mxGeometry>
        </mxCell>
        <mxCell id="E_f2026IoL6lqCkMhn0O-109" value="uartData" style="text;html=1;align=center;verticalAlign=middle;whiteSpace=wrap;rounded=0;" vertex="1" parent="1">
          <mxGeometry x="1084.25" y="140" width="60" height="10" as="geometry" />
        </mxCell>
        <mxCell id="E_f2026IoL6lqCkMhn0O-110" value="" style="endArrow=none;html=1;rounded=0;" edge="1" parent="1">
          <mxGeometry width="50" height="50" relative="1" as="geometry">
            <mxPoint x="1158.25" y="158" as="sourcePoint" />
            <mxPoint x="1168.25" y="138" as="targetPoint" />
          </mxGeometry>
        </mxCell>
        <mxCell id="E_f2026IoL6lqCkMhn0O-111" value="8" style="text;html=1;align=center;verticalAlign=middle;whiteSpace=wrap;rounded=0;" vertex="1" parent="1">
          <mxGeometry x="1154.25" y="135" width="10" height="10" as="geometry" />
        </mxCell>
        <mxCell id="E_f2026IoL6lqCkMhn0O-112" value="" style="endArrow=none;html=1;rounded=0;strokeWidth=3;" edge="1" parent="1">
          <mxGeometry width="50" height="50" relative="1" as="geometry">
            <mxPoint x="1144.25" y="147" as="sourcePoint" />
            <mxPoint x="1184.25" y="147" as="targetPoint" />
          </mxGeometry>
        </mxCell>
        <mxCell id="E_f2026IoL6lqCkMhn0O-113" value="" style="verticalLabelPosition=bottom;shadow=0;dashed=0;align=center;html=1;verticalAlign=top;shape=mxgraph.electrical.abstract.dac;rounded=0;" vertex="1" parent="1">
          <mxGeometry x="1894" y="680" width="80" height="40" as="geometry" />
        </mxCell>
        <mxCell id="E_f2026IoL6lqCkMhn0O-114" value="writeEn" style="text;html=1;align=center;verticalAlign=middle;whiteSpace=wrap;rounded=0;" vertex="1" parent="1">
          <mxGeometry x="1894" y="685" width="60" height="30" as="geometry" />
        </mxCell>
        <mxCell id="E_f2026IoL6lqCkMhn0O-115" value="" style="verticalLabelPosition=bottom;shadow=0;dashed=0;align=center;html=1;verticalAlign=top;shape=mxgraph.electrical.abstract.dac;rounded=0;" vertex="1" parent="1">
          <mxGeometry x="1080" y="742.5" width="80" height="40" as="geometry" />
        </mxCell>
        <mxCell id="E_f2026IoL6lqCkMhn0O-116" value="data" style="text;html=1;align=center;verticalAlign=middle;whiteSpace=wrap;rounded=0;" vertex="1" parent="1">
          <mxGeometry x="1080" y="752.5" width="46" height="20" as="geometry" />
        </mxCell>
        <mxCell id="E_f2026IoL6lqCkMhn0O-117" value="" style="rounded=0;whiteSpace=wrap;html=1;" vertex="1" parent="1">
          <mxGeometry x="610" width="120" height="360" as="geometry" />
        </mxCell>
        <mxCell id="E_f2026IoL6lqCkMhn0O-118" value="CONTROL" style="text;html=1;align=center;verticalAlign=middle;whiteSpace=wrap;rounded=0;" vertex="1" parent="1">
          <mxGeometry x="640" y="-20" width="60" height="20" as="geometry" />
        </mxCell>
        <mxCell id="E_f2026IoL6lqCkMhn0O-121" value="" style="endArrow=none;html=1;rounded=0;" edge="1" parent="1">
          <mxGeometry width="50" height="50" relative="1" as="geometry">
            <mxPoint x="240" y="20" as="sourcePoint" />
            <mxPoint x="610" y="20" as="targetPoint" />
          </mxGeometry>
        </mxCell>
        <mxCell id="E_f2026IoL6lqCkMhn0O-123" value="" style="rounded=0;whiteSpace=wrap;html=1;" vertex="1" parent="1">
          <mxGeometry x="1870" width="114" height="130" as="geometry" />
        </mxCell>
        <mxCell id="E_f2026IoL6lqCkMhn0O-124" value="T0_GENERATOR" style="text;html=1;align=center;verticalAlign=middle;whiteSpace=wrap;rounded=0;" vertex="1" parent="1">
          <mxGeometry x="1871" y="-30" width="106" height="30" as="geometry" />
        </mxCell>
        <mxCell id="E_f2026IoL6lqCkMhn0O-126" value="" style="endArrow=none;html=1;rounded=0;" edge="1" parent="1">
          <mxGeometry width="50" height="50" relative="1" as="geometry">
            <mxPoint x="730" y="159" as="sourcePoint" />
            <mxPoint x="1870" y="40" as="targetPoint" />
            <Array as="points">
              <mxPoint x="850" y="160" />
              <mxPoint x="850" y="260" />
              <mxPoint x="1550" y="260" />
              <mxPoint x="1550" y="40" />
            </Array>
          </mxGeometry>
        </mxCell>
        <mxCell id="E_f2026IoL6lqCkMhn0O-127" value="loadDataTimebaseEn" style="text;html=1;align=center;verticalAlign=middle;whiteSpace=wrap;rounded=0;" vertex="1" parent="1">
          <mxGeometry x="1750" y="25" width="120" height="15" as="geometry" />
        </mxCell>
        <mxCell id="E_f2026IoL6lqCkMhn0O-128" value="loadHeaderTimebaseEn" style="text;html=1;align=center;verticalAlign=middle;whiteSpace=wrap;rounded=0;" vertex="1" parent="1">
          <mxGeometry x="1730" y="45" width="140" height="10" as="geometry" />
        </mxCell>
        <mxCell id="E_f2026IoL6lqCkMhn0O-129" value="" style="endArrow=none;html=1;rounded=0;" edge="1" parent="1">
          <mxGeometry width="50" height="50" relative="1" as="geometry">
            <mxPoint x="730" y="170" as="sourcePoint" />
            <mxPoint x="1870" y="60" as="targetPoint" />
            <Array as="points">
              <mxPoint x="840" y="170" />
              <mxPoint x="840" y="270" />
              <mxPoint x="1560" y="270" />
              <mxPoint x="1560" y="60" />
            </Array>
          </mxGeometry>
        </mxCell>
        <mxCell id="E_f2026IoL6lqCkMhn0O-136" value="clock" style="text;html=1;align=center;verticalAlign=middle;whiteSpace=wrap;rounded=0;" vertex="1" parent="1">
          <mxGeometry x="1780" y="90" width="50" height="20" as="geometry" />
        </mxCell>
        <mxCell id="E_f2026IoL6lqCkMhn0O-137" value="" style="endArrow=none;html=1;rounded=0;entryX=0;entryY=0.5;entryDx=0;entryDy=0;" edge="1" parent="1">
          <mxGeometry width="50" height="50" relative="1" as="geometry">
            <mxPoint x="1820" y="100" as="sourcePoint" />
            <mxPoint x="1870" y="100" as="targetPoint" />
          </mxGeometry>
        </mxCell>
        <mxCell id="E_f2026IoL6lqCkMhn0O-138" value="reset" style="text;html=1;align=center;verticalAlign=middle;whiteSpace=wrap;rounded=0;" vertex="1" parent="1">
          <mxGeometry x="1780" y="110" width="50" height="20" as="geometry" />
        </mxCell>
        <mxCell id="E_f2026IoL6lqCkMhn0O-139" value="" style="endArrow=none;html=1;rounded=0;entryX=0;entryY=0.5;entryDx=0;entryDy=0;" edge="1" parent="1">
          <mxGeometry width="50" height="50" relative="1" as="geometry">
            <mxPoint x="1820" y="120" as="sourcePoint" />
            <mxPoint x="1870" y="120" as="targetPoint" />
          </mxGeometry>
        </mxCell>
        <mxCell id="E_f2026IoL6lqCkMhn0O-140" value="" style="endArrow=none;html=1;rounded=0;" edge="1" parent="1">
          <mxGeometry width="50" height="50" relative="1" as="geometry">
            <mxPoint x="1984" y="9.6" as="sourcePoint" />
            <mxPoint x="2270" y="10" as="targetPoint" />
          </mxGeometry>
        </mxCell>
        <mxCell id="E_f2026IoL6lqCkMhn0O-142" value="" style="rounded=0;whiteSpace=wrap;html=1;" vertex="1" parent="1">
          <mxGeometry x="2270" width="140" height="160" as="geometry" />
        </mxCell>
        <mxCell id="E_f2026IoL6lqCkMhn0O-143" value="TX" style="text;html=1;align=center;verticalAlign=middle;whiteSpace=wrap;rounded=0;" vertex="1" parent="1">
          <mxGeometry x="2310" y="-20" width="60" height="20" as="geometry" />
        </mxCell>
        <mxCell id="E_f2026IoL6lqCkMhn0O-144" value="clock" style="text;html=1;align=center;verticalAlign=middle;whiteSpace=wrap;rounded=0;" vertex="1" parent="1">
          <mxGeometry x="2270" y="110" width="50" height="20" as="geometry" />
        </mxCell>
        <mxCell id="E_f2026IoL6lqCkMhn0O-145" value="reset" style="text;html=1;align=center;verticalAlign=middle;whiteSpace=wrap;rounded=0;" vertex="1" parent="1">
          <mxGeometry x="2270" y="130" width="50" height="20" as="geometry" />
        </mxCell>
        <mxCell id="E_f2026IoL6lqCkMhn0O-146" value="VpeTransmitter" style="text;html=1;align=center;verticalAlign=middle;whiteSpace=wrap;rounded=0;" vertex="1" parent="1">
          <mxGeometry x="2322.5" y="130" width="85" height="30" as="geometry" />
        </mxCell>
        <mxCell id="E_f2026IoL6lqCkMhn0O-147" value="t0En" style="text;html=1;align=center;verticalAlign=middle;whiteSpace=wrap;rounded=0;" vertex="1" parent="1">
          <mxGeometry x="2270" width="30" height="20" as="geometry" />
        </mxCell>
        <mxCell id="E_f2026IoL6lqCkMhn0O-148" value="data" style="text;html=1;align=center;verticalAlign=middle;whiteSpace=wrap;rounded=0;" vertex="1" parent="1">
          <mxGeometry x="2270" y="20" width="30" height="10" as="geometry" />
        </mxCell>
        <mxCell id="E_f2026IoL6lqCkMhn0O-149" value="txMode" style="text;html=1;align=center;verticalAlign=middle;whiteSpace=wrap;rounded=0;" vertex="1" parent="1">
          <mxGeometry x="2270" y="32.5" width="40" height="15" as="geometry" />
        </mxCell>
        <mxCell id="E_f2026IoL6lqCkMhn0O-150" value="vpeSerial" style="text;html=1;align=center;verticalAlign=middle;whiteSpace=wrap;rounded=0;" vertex="1" parent="1">
          <mxGeometry x="2350" width="60" height="20" as="geometry" />
        </mxCell>
        <mxCell id="E_f2026IoL6lqCkMhn0O-151" value="wordEndEn" style="text;html=1;align=center;verticalAlign=middle;whiteSpace=wrap;rounded=0;" vertex="1" parent="1">
          <mxGeometry x="2350" y="20" width="60" height="20" as="geometry" />
        </mxCell>
        <mxCell id="E_f2026IoL6lqCkMhn0O-152" value="" style="endArrow=none;html=1;rounded=0;" edge="1" parent="1">
          <mxGeometry width="50" height="50" relative="1" as="geometry">
            <mxPoint x="2230" y="116" as="sourcePoint" />
            <mxPoint x="2270" y="116" as="targetPoint" />
          </mxGeometry>
        </mxCell>
        <mxCell id="E_f2026IoL6lqCkMhn0O-153" value="clock" style="text;html=1;align=center;verticalAlign=middle;whiteSpace=wrap;rounded=0;" vertex="1" parent="1">
          <mxGeometry x="2200" y="100" width="30" height="30" as="geometry" />
        </mxCell>
        <mxCell id="E_f2026IoL6lqCkMhn0O-154" value="" style="endArrow=none;html=1;rounded=0;" edge="1" parent="1">
          <mxGeometry width="50" height="50" relative="1" as="geometry">
            <mxPoint x="2230" y="146" as="sourcePoint" />
            <mxPoint x="2270" y="146" as="targetPoint" />
          </mxGeometry>
        </mxCell>
        <mxCell id="E_f2026IoL6lqCkMhn0O-155" value="reset" style="text;html=1;align=center;verticalAlign=middle;whiteSpace=wrap;rounded=0;" vertex="1" parent="1">
          <mxGeometry x="2200" y="130" width="30" height="30" as="geometry" />
        </mxCell>
        <mxCell id="E_f2026IoL6lqCkMhn0O-156" value="" style="rounded=0;whiteSpace=wrap;html=1;" vertex="1" parent="1">
          <mxGeometry x="2605" width="120" height="60" as="geometry" />
        </mxCell>
        <mxCell id="E_f2026IoL6lqCkMhn0O-158" value="PULSE_END_DETECTOR" style="text;html=1;align=center;verticalAlign=middle;whiteSpace=wrap;rounded=0;" vertex="1" parent="1">
          <mxGeometry x="2590" y="-20" width="150" height="20" as="geometry" />
        </mxCell>
        <mxCell id="E_f2026IoL6lqCkMhn0O-160" value="" style="endArrow=none;html=1;rounded=0;" edge="1" parent="1">
          <mxGeometry width="50" height="50" relative="1" as="geometry">
            <mxPoint x="2410" y="10" as="sourcePoint" />
            <mxPoint x="2605" y="10" as="targetPoint" />
          </mxGeometry>
        </mxCell>
        <mxCell id="E_f2026IoL6lqCkMhn0O-161" value="" style="ellipse;whiteSpace=wrap;html=1;aspect=fixed;fillColor=#000000;" vertex="1" parent="1">
          <mxGeometry x="2508" y="8" width="4" height="4" as="geometry" />
        </mxCell>
        <mxCell id="E_f2026IoL6lqCkMhn0O-162" value="" style="endArrow=none;html=1;rounded=0;" edge="1" parent="1">
          <mxGeometry width="50" height="50" relative="1" as="geometry">
            <mxPoint x="2750" y="80" as="sourcePoint" />
            <mxPoint x="2510" y="12" as="targetPoint" />
            <Array as="points">
              <mxPoint x="2510" y="80" />
            </Array>
          </mxGeometry>
        </mxCell>
        <mxCell id="E_f2026IoL6lqCkMhn0O-167" value="" style="verticalLabelPosition=bottom;shadow=0;dashed=0;align=center;html=1;verticalAlign=top;shape=mxgraph.electrical.abstract.dac;rounded=0;" vertex="1" parent="1">
          <mxGeometry x="2750" y="60" width="80" height="40" as="geometry" />
        </mxCell>
        <mxCell id="E_f2026IoL6lqCkMhn0O-168" value="vpeTx" style="text;html=1;align=center;verticalAlign=middle;whiteSpace=wrap;rounded=0;" vertex="1" parent="1">
          <mxGeometry x="2750" y="65" width="60" height="30" as="geometry" />
        </mxCell>
        <mxCell id="E_f2026IoL6lqCkMhn0O-169" value="" style="endArrow=none;html=1;rounded=0;" edge="1" parent="1">
          <mxGeometry width="50" height="50" relative="1" as="geometry">
            <mxPoint x="2410" y="30" as="sourcePoint" />
            <mxPoint x="610" y="80" as="targetPoint" />
            <Array as="points">
              <mxPoint x="2470" y="30" />
              <mxPoint x="2470" y="-120" />
              <mxPoint x="430" y="-120" />
              <mxPoint x="430" y="80" />
            </Array>
          </mxGeometry>
        </mxCell>
        <mxCell id="E_f2026IoL6lqCkMhn0O-172" value="clock" style="text;html=1;align=center;verticalAlign=middle;whiteSpace=wrap;rounded=0;" vertex="1" parent="1">
          <mxGeometry x="2600" y="22" width="50" height="20" as="geometry" />
        </mxCell>
        <mxCell id="E_f2026IoL6lqCkMhn0O-173" value="reset" style="text;html=1;align=center;verticalAlign=middle;whiteSpace=wrap;rounded=0;" vertex="1" parent="1">
          <mxGeometry x="2600" y="42" width="50" height="20" as="geometry" />
        </mxCell>
        <mxCell id="E_f2026IoL6lqCkMhn0O-174" value="" style="endArrow=none;html=1;rounded=0;" edge="1" parent="1">
          <mxGeometry width="50" height="50" relative="1" as="geometry">
            <mxPoint x="2565" y="33.31" as="sourcePoint" />
            <mxPoint x="2605" y="33.31" as="targetPoint" />
          </mxGeometry>
        </mxCell>
        <mxCell id="E_f2026IoL6lqCkMhn0O-175" value="clock" style="text;html=1;align=center;verticalAlign=middle;whiteSpace=wrap;rounded=0;" vertex="1" parent="1">
          <mxGeometry x="2530" y="17" width="30" height="30" as="geometry" />
        </mxCell>
        <mxCell id="E_f2026IoL6lqCkMhn0O-176" value="" style="endArrow=none;html=1;rounded=0;" edge="1" parent="1">
          <mxGeometry width="50" height="50" relative="1" as="geometry">
            <mxPoint x="2565" y="51.81" as="sourcePoint" />
            <mxPoint x="2605" y="51.81" as="targetPoint" />
          </mxGeometry>
        </mxCell>
        <mxCell id="E_f2026IoL6lqCkMhn0O-177" value="reset" style="text;html=1;align=center;verticalAlign=middle;whiteSpace=wrap;rounded=0;" vertex="1" parent="1">
          <mxGeometry x="2530" y="44.5" width="30" height="15" as="geometry" />
        </mxCell>
        <mxCell id="E_f2026IoL6lqCkMhn0O-178" value="" style="endArrow=none;html=1;rounded=0;" edge="1" parent="1">
          <mxGeometry width="50" height="50" relative="1" as="geometry">
            <mxPoint x="2725" y="15" as="sourcePoint" />
            <mxPoint x="610" y="60" as="targetPoint" />
            <Array as="points">
              <mxPoint x="2830" y="15" />
              <mxPoint x="2830" y="-80" />
              <mxPoint x="470" y="-80" />
              <mxPoint x="470" y="60" />
            </Array>
          </mxGeometry>
        </mxCell>
        <mxCell id="E_f2026IoL6lqCkMhn0O-179" value="pulseEndedEn" style="text;html=1;align=center;verticalAlign=middle;whiteSpace=wrap;rounded=0;" vertex="1" parent="1">
          <mxGeometry x="2740" width="80" height="15" as="geometry" />
        </mxCell>
        <mxCell id="E_f2026IoL6lqCkMhn0O-183" value="" style="endArrow=none;html=1;rounded=0;" edge="1" parent="1">
          <mxGeometry width="50" height="50" relative="1" as="geometry">
            <mxPoint x="730" y="140" as="sourcePoint" />
            <mxPoint x="2270" y="40" as="targetPoint" />
            <Array as="points">
              <mxPoint x="870" y="140" />
              <mxPoint x="870" y="250" />
              <mxPoint x="2260" y="250" />
              <mxPoint x="2260" y="40" />
            </Array>
          </mxGeometry>
        </mxCell>
        <mxCell id="E_f2026IoL6lqCkMhn0O-185" value="" style="rounded=0;whiteSpace=wrap;html=1;" vertex="1" parent="1">
          <mxGeometry x="1244" y="737.5" width="120" height="165" as="geometry" />
        </mxCell>
        <mxCell id="E_f2026IoL6lqCkMhn0O-186" value="" style="endArrow=none;html=1;rounded=0;" edge="1" parent="1">
          <mxGeometry width="50" height="50" relative="1" as="geometry">
            <mxPoint x="360" y="100" as="sourcePoint" />
            <mxPoint x="610" y="99" as="targetPoint" />
          </mxGeometry>
        </mxCell>
        <mxCell id="E_f2026IoL6lqCkMhn0O-204" value="addressIncrementEn" style="text;html=1;align=center;verticalAlign=middle;whiteSpace=wrap;rounded=0;" vertex="1" parent="1">
          <mxGeometry x="1124" y="529" width="120" height="10" as="geometry" />
        </mxCell>
        <mxCell id="E_f2026IoL6lqCkMhn0O-207" value="" style="endArrow=none;html=1;rounded=0;strokeWidth=3;" edge="1" parent="1">
          <mxGeometry width="50" height="50" relative="1" as="geometry">
            <mxPoint x="1160" y="762.5" as="sourcePoint" />
            <mxPoint x="1244" y="762.5" as="targetPoint" />
          </mxGeometry>
        </mxCell>
        <mxCell id="E_f2026IoL6lqCkMhn0O-208" value="" style="endArrow=none;html=1;rounded=0;" edge="1" parent="1">
          <mxGeometry width="50" height="50" relative="1" as="geometry">
            <mxPoint x="1201.25" y="772.5" as="sourcePoint" />
            <mxPoint x="1211.25" y="752.5" as="targetPoint" />
          </mxGeometry>
        </mxCell>
        <mxCell id="E_f2026IoL6lqCkMhn0O-209" value="8" style="text;html=1;align=center;verticalAlign=middle;whiteSpace=wrap;rounded=0;" vertex="1" parent="1">
          <mxGeometry x="1197.25" y="749.5" width="10" height="10" as="geometry" />
        </mxCell>
        <mxCell id="E_f2026IoL6lqCkMhn0O-211" value="READ_LATCH" style="text;html=1;align=center;verticalAlign=middle;whiteSpace=wrap;rounded=0;" vertex="1" parent="1">
          <mxGeometry x="1244" y="717.5" width="120" height="20" as="geometry" />
        </mxCell>
        <mxCell id="E_f2026IoL6lqCkMhn0O-212" value="" style="endArrow=none;html=1;rounded=0;" edge="1" parent="1">
          <mxGeometry width="50" height="50" relative="1" as="geometry">
            <mxPoint x="730" y="150" as="sourcePoint" />
            <mxPoint x="1244" y="800" as="targetPoint" />
            <Array as="points">
              <mxPoint x="860" y="150" />
              <mxPoint x="860" y="800" />
            </Array>
          </mxGeometry>
        </mxCell>
        <mxCell id="E_f2026IoL6lqCkMhn0O-214" value="readEn" style="text;html=1;align=center;verticalAlign=middle;whiteSpace=wrap;rounded=0;" vertex="1" parent="1">
          <mxGeometry x="1204" y="782.5" width="40" height="22.5" as="geometry" />
        </mxCell>
        <mxCell id="E_f2026IoL6lqCkMhn0O-221" value="clock" style="text;html=1;align=center;verticalAlign=middle;whiteSpace=wrap;rounded=0;" vertex="1" parent="1">
          <mxGeometry x="1174" y="860" width="50" height="20" as="geometry" />
        </mxCell>
        <mxCell id="E_f2026IoL6lqCkMhn0O-222" value="" style="endArrow=none;html=1;rounded=0;" edge="1" parent="1">
          <mxGeometry width="50" height="50" relative="1" as="geometry">
            <mxPoint x="1214" y="870" as="sourcePoint" />
            <mxPoint x="1244" y="870" as="targetPoint" />
          </mxGeometry>
        </mxCell>
        <mxCell id="E_f2026IoL6lqCkMhn0O-223" value="reset" style="text;html=1;align=center;verticalAlign=middle;whiteSpace=wrap;rounded=0;" vertex="1" parent="1">
          <mxGeometry x="1174" y="880" width="50" height="20" as="geometry" />
        </mxCell>
        <mxCell id="E_f2026IoL6lqCkMhn0O-224" value="" style="endArrow=none;html=1;rounded=0;" edge="1" parent="1">
          <mxGeometry width="50" height="50" relative="1" as="geometry">
            <mxPoint x="1214" y="890" as="sourcePoint" />
            <mxPoint x="1244" y="890" as="targetPoint" />
          </mxGeometry>
        </mxCell>
        <mxCell id="E_f2026IoL6lqCkMhn0O-227" value="" style="endArrow=none;html=1;rounded=0;strokeWidth=3;" edge="1" parent="1">
          <mxGeometry width="50" height="50" relative="1" as="geometry">
            <mxPoint x="1364" y="760" as="sourcePoint" />
            <mxPoint x="2060" y="360" as="targetPoint" />
            <Array as="points">
              <mxPoint x="1780" y="760" />
              <mxPoint x="1780" y="480" />
              <mxPoint x="2050" y="480" />
              <mxPoint x="2050" y="360" />
            </Array>
          </mxGeometry>
        </mxCell>
        <mxCell id="E_f2026IoL6lqCkMhn0O-230" value="" style="endArrow=none;html=1;rounded=0;" edge="1" parent="1">
          <mxGeometry width="50" height="50" relative="1" as="geometry">
            <mxPoint x="1417.75" y="769.5" as="sourcePoint" />
            <mxPoint x="1427.75" y="749.5" as="targetPoint" />
          </mxGeometry>
        </mxCell>
        <mxCell id="E_f2026IoL6lqCkMhn0O-231" value="8" style="text;html=1;align=center;verticalAlign=middle;whiteSpace=wrap;rounded=0;" vertex="1" parent="1">
          <mxGeometry x="1413.5" y="745" width="10" height="10" as="geometry" />
        </mxCell>
        <mxCell id="E_f2026IoL6lqCkMhn0O-232" value="readData" style="text;html=1;align=center;verticalAlign=middle;whiteSpace=wrap;rounded=0;" vertex="1" parent="1">
          <mxGeometry x="1427.75" y="742.5" width="60" height="20" as="geometry" />
        </mxCell>
        <mxCell id="E_f2026IoL6lqCkMhn0O-234" value="" style="rounded=0;whiteSpace=wrap;html=1;" vertex="1" parent="1">
          <mxGeometry x="1710" y="320" width="120" height="120" as="geometry" />
        </mxCell>
        <mxCell id="E_f2026IoL6lqCkMhn0O-235" value="HEADER_GENERATOR" style="text;html=1;align=center;verticalAlign=middle;whiteSpace=wrap;rounded=0;" vertex="1" parent="1">
          <mxGeometry x="1705" y="300" width="130" height="20" as="geometry" />
        </mxCell>
        <mxCell id="E_f2026IoL6lqCkMhn0O-236" value="" style="endArrow=none;html=1;rounded=0;strokeWidth=3;" edge="1" parent="1">
          <mxGeometry width="50" height="50" relative="1" as="geometry">
            <mxPoint x="1638" y="355" as="sourcePoint" />
            <mxPoint x="1710" y="355" as="targetPoint" />
          </mxGeometry>
        </mxCell>
        <mxCell id="E_f2026IoL6lqCkMhn0O-237" value="dataCount" style="text;html=1;align=center;verticalAlign=middle;whiteSpace=wrap;rounded=0;" vertex="1" parent="1">
          <mxGeometry x="1580" y="350" width="60" height="10" as="geometry" />
        </mxCell>
        <mxCell id="E_f2026IoL6lqCkMhn0O-238" value="" style="ellipse;whiteSpace=wrap;html=1;aspect=fixed;fillColor=#000000;" vertex="1" parent="1">
          <mxGeometry x="1666" y="15" width="8" height="8" as="geometry" />
        </mxCell>
        <mxCell id="E_f2026IoL6lqCkMhn0O-239" value="" style="endArrow=none;html=1;rounded=0;strokeWidth=3;" edge="1" parent="1">
          <mxGeometry width="50" height="50" relative="1" as="geometry">
            <mxPoint x="1710" y="330" as="sourcePoint" />
            <mxPoint x="1670" y="20" as="targetPoint" />
            <Array as="points">
              <mxPoint x="1670" y="330" />
            </Array>
          </mxGeometry>
        </mxCell>
        <mxCell id="E_f2026IoL6lqCkMhn0O-242" value="clock" style="text;html=1;align=center;verticalAlign=middle;whiteSpace=wrap;rounded=0;" vertex="1" parent="1">
          <mxGeometry x="1620" y="405" width="50" height="20" as="geometry" />
        </mxCell>
        <mxCell id="E_f2026IoL6lqCkMhn0O-243" value="" style="endArrow=none;html=1;rounded=0;entryX=0;entryY=0.5;entryDx=0;entryDy=0;" edge="1" parent="1">
          <mxGeometry width="50" height="50" relative="1" as="geometry">
            <mxPoint x="1660" y="415" as="sourcePoint" />
            <mxPoint x="1710" y="415" as="targetPoint" />
          </mxGeometry>
        </mxCell>
        <mxCell id="E_f2026IoL6lqCkMhn0O-244" value="reset" style="text;html=1;align=center;verticalAlign=middle;whiteSpace=wrap;rounded=0;" vertex="1" parent="1">
          <mxGeometry x="1620" y="425" width="50" height="20" as="geometry" />
        </mxCell>
        <mxCell id="E_f2026IoL6lqCkMhn0O-245" value="" style="endArrow=none;html=1;rounded=0;entryX=0;entryY=0.5;entryDx=0;entryDy=0;" edge="1" parent="1">
          <mxGeometry width="50" height="50" relative="1" as="geometry">
            <mxPoint x="1660" y="435" as="sourcePoint" />
            <mxPoint x="1710" y="435" as="targetPoint" />
          </mxGeometry>
        </mxCell>
        <mxCell id="E_f2026IoL6lqCkMhn0O-247" value="" style="endArrow=none;html=1;rounded=0;" edge="1" parent="1">
          <mxGeometry width="50" height="50" relative="1" as="geometry">
            <mxPoint x="730" y="180" as="sourcePoint" />
            <mxPoint x="1710" y="379.63" as="targetPoint" />
            <Array as="points">
              <mxPoint x="820" y="180" />
              <mxPoint x="820" y="380" />
            </Array>
          </mxGeometry>
        </mxCell>
        <mxCell id="E_f2026IoL6lqCkMhn0O-248" value="headerLoadEn" style="text;html=1;align=center;verticalAlign=middle;whiteSpace=wrap;rounded=0;" vertex="1" parent="1">
          <mxGeometry x="1630" y="370" width="80" height="10" as="geometry" />
        </mxCell>
        <mxCell id="E_f2026IoL6lqCkMhn0O-249" value="headerNextEn" style="text;html=1;align=center;verticalAlign=middle;whiteSpace=wrap;rounded=0;" vertex="1" parent="1">
          <mxGeometry x="1624" y="385" width="90" height="15" as="geometry" />
        </mxCell>
        <mxCell id="E_f2026IoL6lqCkMhn0O-250" value="" style="endArrow=none;html=1;rounded=0;" edge="1" parent="1">
          <mxGeometry width="50" height="50" relative="1" as="geometry">
            <mxPoint x="730" y="189" as="sourcePoint" />
            <mxPoint x="1710" y="400" as="targetPoint" />
            <Array as="points">
              <mxPoint x="810" y="189" />
              <mxPoint x="810" y="400" />
            </Array>
          </mxGeometry>
        </mxCell>
        <mxCell id="E_f2026IoL6lqCkMhn0O-251" value="" style="endArrow=none;html=1;rounded=0;strokeWidth=3;" edge="1" parent="1">
          <mxGeometry width="50" height="50" relative="1" as="geometry">
            <mxPoint x="1830" y="340" as="sourcePoint" />
            <mxPoint x="2060" y="340" as="targetPoint" />
            <Array as="points" />
          </mxGeometry>
        </mxCell>
        <mxCell id="E_f2026IoL6lqCkMhn0O-253" value="" style="endArrow=none;html=1;rounded=0;" edge="1" parent="1">
          <mxGeometry width="50" height="50" relative="1" as="geometry">
            <mxPoint x="1858.25" y="350" as="sourcePoint" />
            <mxPoint x="1868.25" y="330" as="targetPoint" />
          </mxGeometry>
        </mxCell>
        <mxCell id="E_f2026IoL6lqCkMhn0O-254" value="8" style="text;html=1;align=center;verticalAlign=middle;whiteSpace=wrap;rounded=0;" vertex="1" parent="1">
          <mxGeometry x="1854" y="325.5" width="10" height="10" as="geometry" />
        </mxCell>
        <mxCell id="E_f2026IoL6lqCkMhn0O-255" value="headerData" style="text;html=1;align=center;verticalAlign=middle;whiteSpace=wrap;rounded=0;" vertex="1" parent="1">
          <mxGeometry x="1868.25" y="323" width="60" height="20" as="geometry" />
        </mxCell>
        <mxCell id="E_f2026IoL6lqCkMhn0O-256" value="" style="endArrow=none;html=1;rounded=0;" edge="1" parent="1">
          <mxGeometry width="50" height="50" relative="1" as="geometry">
            <mxPoint x="1830" y="400" as="sourcePoint" />
            <mxPoint x="610" y="130" as="targetPoint" />
            <Array as="points">
              <mxPoint x="1970" y="400" />
              <mxPoint x="1970" y="200" />
              <mxPoint x="2010" y="200" />
              <mxPoint x="2010" y="-130" />
              <mxPoint x="420" y="-130" />
              <mxPoint x="420" y="130" />
            </Array>
          </mxGeometry>
        </mxCell>
        <mxCell id="E_f2026IoL6lqCkMhn0O-257" value="headerCompleteMode" style="text;html=1;align=center;verticalAlign=middle;whiteSpace=wrap;rounded=0;" vertex="1" parent="1">
          <mxGeometry x="1840" y="387.5" width="120" height="10" as="geometry" />
        </mxCell>
        <mxCell id="E_f2026IoL6lqCkMhn0O-262" value="" style="endArrow=none;html=1;rounded=0;" edge="1" parent="1">
          <mxGeometry width="50" height="50" relative="1" as="geometry">
            <mxPoint x="2060" y="330" as="sourcePoint" />
            <mxPoint x="2060" y="330" as="targetPoint" />
            <Array as="points">
              <mxPoint x="2080" y="340" />
              <mxPoint x="2080" y="360" />
              <mxPoint x="2060" y="370" />
            </Array>
          </mxGeometry>
        </mxCell>
        <mxCell id="E_f2026IoL6lqCkMhn0O-263" value="0" style="text;html=1;align=center;verticalAlign=middle;whiteSpace=wrap;rounded=0;" vertex="1" parent="1">
          <mxGeometry x="2060" y="335" width="10" height="10" as="geometry" />
        </mxCell>
        <mxCell id="E_f2026IoL6lqCkMhn0O-264" value="1" style="text;html=1;align=center;verticalAlign=middle;whiteSpace=wrap;rounded=0;" vertex="1" parent="1">
          <mxGeometry x="2060" y="352.5" width="10" height="10" as="geometry" />
        </mxCell>
        <mxCell id="E_f2026IoL6lqCkMhn0O-265" value="" style="endArrow=none;html=1;rounded=0;strokeWidth=3;" edge="1" parent="1">
          <mxGeometry width="50" height="50" relative="1" as="geometry">
            <mxPoint x="2080" y="350" as="sourcePoint" />
            <mxPoint x="2270" y="25" as="targetPoint" />
            <Array as="points">
              <mxPoint x="2150" y="350" />
              <mxPoint x="2150" y="25" />
            </Array>
          </mxGeometry>
        </mxCell>
        <mxCell id="E_f2026IoL6lqCkMhn0O-266" value="" style="endArrow=none;html=1;rounded=0;" edge="1" parent="1">
          <mxGeometry width="50" height="50" relative="1" as="geometry">
            <mxPoint x="2094.25" y="359.5" as="sourcePoint" />
            <mxPoint x="2104.25" y="339.5" as="targetPoint" />
          </mxGeometry>
        </mxCell>
        <mxCell id="E_f2026IoL6lqCkMhn0O-267" value="8" style="text;html=1;align=center;verticalAlign=middle;whiteSpace=wrap;rounded=0;" vertex="1" parent="1">
          <mxGeometry x="2090" y="335" width="10" height="10" as="geometry" />
        </mxCell>
        <mxCell id="E_f2026IoL6lqCkMhn0O-268" value="txData" style="text;html=1;align=center;verticalAlign=middle;whiteSpace=wrap;rounded=0;" vertex="1" parent="1">
          <mxGeometry x="2210" y="8" width="60" height="20" as="geometry" />
        </mxCell>
        <mxCell id="E_f2026IoL6lqCkMhn0O-270" value="" style="endArrow=none;html=1;rounded=0;" edge="1" parent="1">
          <mxGeometry width="50" height="50" relative="1" as="geometry">
            <mxPoint x="2070" y="335.5" as="sourcePoint" />
            <mxPoint x="730" y="200" as="targetPoint" />
            <Array as="points">
              <mxPoint x="2070" y="280" />
              <mxPoint x="800" y="280" />
              <mxPoint x="800" y="200" />
            </Array>
          </mxGeometry>
        </mxCell>
        <mxCell id="E_f2026IoL6lqCkMhn0O-271" value="dataSelect" style="text;html=1;align=center;verticalAlign=middle;whiteSpace=wrap;rounded=0;" vertex="1" parent="1">
          <mxGeometry x="1992.25" y="270" width="77.75" height="10" as="geometry" />
        </mxCell>
        <mxCell id="E_f2026IoL6lqCkMhn0O-276" value="clock" style="text;html=1;align=center;verticalAlign=middle;whiteSpace=wrap;rounded=0;" vertex="1" parent="1">
          <mxGeometry x="450" y="320" width="50" height="20" as="geometry" />
        </mxCell>
        <mxCell id="E_f2026IoL6lqCkMhn0O-277" value="" style="endArrow=none;html=1;rounded=0;" edge="1" parent="1">
          <mxGeometry width="50" height="50" relative="1" as="geometry">
            <mxPoint x="490" y="330" as="sourcePoint" />
            <mxPoint x="610" y="330" as="targetPoint" />
          </mxGeometry>
        </mxCell>
        <mxCell id="E_f2026IoL6lqCkMhn0O-278" value="reset" style="text;html=1;align=center;verticalAlign=middle;whiteSpace=wrap;rounded=0;" vertex="1" parent="1">
          <mxGeometry x="450" y="340" width="50" height="20" as="geometry" />
        </mxCell>
        <mxCell id="E_f2026IoL6lqCkMhn0O-279" value="" style="endArrow=none;html=1;rounded=0;" edge="1" parent="1">
          <mxGeometry width="50" height="50" relative="1" as="geometry">
            <mxPoint x="490" y="350" as="sourcePoint" />
            <mxPoint x="610" y="350" as="targetPoint" />
          </mxGeometry>
        </mxCell>
        <mxCell id="MI0gYu_YGlXi9fKXES2h-1" value="" style="verticalLabelPosition=bottom;shadow=0;dashed=0;align=center;html=1;verticalAlign=top;shape=mxgraph.electrical.abstract.dac;rounded=0;" vertex="1" parent="1">
          <mxGeometry x="1962" y="520" width="112" height="40" as="geometry" />
        </mxCell>
        <mxCell id="MI0gYu_YGlXi9fKXES2h-2" value="sevenSegmentHex" style="text;html=1;align=center;verticalAlign=middle;whiteSpace=wrap;rounded=0;" vertex="1" parent="1">
          <mxGeometry x="1962" y="525" width="100" height="30" as="geometry" />
        </mxCell>
        <mxCell id="MI0gYu_YGlXi9fKXES2h-3" value="" style="ellipse;whiteSpace=wrap;html=1;aspect=fixed;fillColor=#000000;" vertex="1" parent="1">
          <mxGeometry x="1800" y="586" width="8" height="8" as="geometry" />
        </mxCell>
        <mxCell id="MI0gYu_YGlXi9fKXES2h-4" value="" style="endArrow=none;html=1;rounded=0;strokeWidth=3;" edge="1" parent="1">
          <mxGeometry width="50" height="50" relative="1" as="geometry">
            <mxPoint x="1804" y="589" as="sourcePoint" />
            <mxPoint x="1824" y="540" as="targetPoint" />
            <Array as="points">
              <mxPoint x="1804" y="540" />
            </Array>
          </mxGeometry>
        </mxCell>
        <mxCell id="MI0gYu_YGlXi9fKXES2h-5" value="" style="endArrow=none;html=1;rounded=0;" edge="1" parent="1">
          <mxGeometry width="50" height="50" relative="1" as="geometry">
            <mxPoint x="1820" y="550" as="sourcePoint" />
            <mxPoint x="1820" y="530" as="targetPoint" />
            <Array as="points">
              <mxPoint x="1824.25" y="540" />
            </Array>
          </mxGeometry>
        </mxCell>
        <mxCell id="MI0gYu_YGlXi9fKXES2h-6" value="" style="endArrow=none;html=1;rounded=0;" edge="1" parent="1">
          <mxGeometry width="50" height="50" relative="1" as="geometry">
            <mxPoint x="1824" y="550" as="sourcePoint" />
            <mxPoint x="1824" y="530" as="targetPoint" />
            <Array as="points">
              <mxPoint x="1828.25" y="540" />
            </Array>
          </mxGeometry>
        </mxCell>
        <mxCell id="MI0gYu_YGlXi9fKXES2h-7" value="" style="endArrow=none;html=1;rounded=0;strokeWidth=3;" edge="1" parent="1">
          <mxGeometry width="50" height="50" relative="1" as="geometry">
            <mxPoint x="1828" y="540" as="sourcePoint" />
            <mxPoint x="1962" y="540" as="targetPoint" />
          </mxGeometry>
        </mxCell>
        <mxCell id="MI0gYu_YGlXi9fKXES2h-8" value="" style="endArrow=none;html=1;rounded=0;" edge="1" parent="1">
          <mxGeometry width="50" height="50" relative="1" as="geometry">
            <mxPoint x="1882.25" y="551.5" as="sourcePoint" />
            <mxPoint x="1892.25" y="531.5" as="targetPoint" />
          </mxGeometry>
        </mxCell>
        <mxCell id="MI0gYu_YGlXi9fKXES2h-9" value="16" style="text;html=1;align=center;verticalAlign=middle;whiteSpace=wrap;rounded=0;" vertex="1" parent="1">
          <mxGeometry x="1878.25" y="528.5" width="10" height="10" as="geometry" />
        </mxCell>
      </root>
    </mxGraphModel>
  </diagram>
</mxfile>
